<svg width="80" height="128" viewBox="0 0 80 128" fill="none" xmlns="http://www.w3.org/2000/svg">
<path d="M18.0392 19.2186L36.7648 62.9419L58.8235 63.2032V39.4941L29.6301 8.67505L18.0392 19.2186Z" fill="#F0F0E6"/>
<path d="M13.6361 7.75989L0 34.6997L28.2353 7.43567L13.6361 7.75989Z" fill="#F0F0E6"/>
<path d="M55.6863 34.1943L59.5372 38.5162L68.4402 40.8961L71.3726 0L55.6863 34.1943Z" fill="#F0F0E6"/>
<path d="M71.3726 14.4249L80 21.0677L72.3642 0L71.3726 14.4249Z" fill="#F0F0E6"/>
<path d="M35.5841 89.8158L21.9608 127.646L47.8432 100.299L45.5696 79.3138L35.5841 89.8158Z" fill="#F0F0E6"/>
<path d="M76.0785 54.5282L76.0724 43.9501L69.0196 42.1354L76.0785 54.5282Z" fill="#F0F0E6"/>
<path d="M36.0784 87.9886L57.9669 64.309L44.2552 64.1485L36.0784 87.9886ZM59.503 62.6567L72.1568 48.9663L68.4927 42.0267L59.503 39.6569V62.6567Z" fill="#F0F0E6"/>
<path d="M72.1567 55.7674L75.294 54.3636L73.7758 52.0496L72.1567 55.7674Z" fill="#F0F0E6"/>
</svg>
